<svg id="Layer_1" data-name="Layer 1" xmlns="http://www.w3.org/2000/svg" viewBox="0 0 100 18.93"><title>logo</title><path d="M.67,8.7a6.26,6.26,0,0,1,.8-1.36A5.52,5.52,0,0,1,2.59,6.26,5.26,5.26,0,0,1,4,5.54a4.91,4.91,0,0,1,1.62-.26,4.83,4.83,0,0,1,2,.37,3.63,3.63,0,0,1,1.36,1,4.3,4.3,0,0,1,.8,1.55,7.3,7.3,0,0,1,.27,2v8.52H9.31V10.17a6.86,6.86,0,0,0-.23-1.71,3.64,3.64,0,0,0-.67-1.35,3.09,3.09,0,0,0-1.16-.88,4,4,0,0,0-1.7-.3,4.45,4.45,0,0,0-1.69.35,5.36,5.36,0,0,0-1.45.91,5.52,5.52,0,0,0-1.73,3v8.54H0V0H.67Z"/><path d="M24.4,18.69a8.23,8.23,0,0,1-.19-1.23q0-.61-.06-1.23a5.35,5.35,0,0,1-1,1.18,5.81,5.81,0,0,1-1.28.85,6.64,6.64,0,0,1-1.47.5,7.44,7.44,0,0,1-1.59.17,5.12,5.12,0,0,1-1.55-.24A4.27,4.27,0,0,1,15.89,18,3.39,3.39,0,0,1,15,16.89a3.24,3.24,0,0,1-.35-1.53,3.19,3.19,0,0,1,.57-2,4.1,4.1,0,0,1,1.48-1.23,7,7,0,0,1,2-.64,14.77,14.77,0,0,1,2.21-.19h3.25V9.42a3.53,3.53,0,0,0-.37-1.55,3.15,3.15,0,0,0-.91-1.08,4,4,0,0,0-1.31-.64A5.73,5.73,0,0,0,20,5.94a6,6,0,0,0-1.49.19,4.74,4.74,0,0,0-1.38.59,3.57,3.57,0,0,0-1,1,2.68,2.68,0,0,0-.45,1.43l-.66,0a3.32,3.32,0,0,1,.52-1.68,4.21,4.21,0,0,1,1.18-1.2,5.41,5.41,0,0,1,1.58-.72,6.46,6.46,0,0,1,3.58,0,4.57,4.57,0,0,1,1.53.78,3.69,3.69,0,0,1,1,1.3,4.34,4.34,0,0,1,.41,1.82V16a8,8,0,0,0,.12,1.28l.23,1.27v.11Zm-5.62-.4a6.54,6.54,0,0,0,1.67-.19A5.84,5.84,0,0,0,22,17.5a5.42,5.42,0,0,0,1.26-1,5.24,5.24,0,0,0,.92-1.38V12H20.93q-.62,0-1.28.07a9.7,9.7,0,0,0-1.3.21,7,7,0,0,0-1.2.39,3.57,3.57,0,0,0-1,.62,2.86,2.86,0,0,0-.67.89,2.65,2.65,0,0,0-.24,1.21,2.4,2.4,0,0,0,.32,1.24,2.93,2.93,0,0,0,.82.91,3.77,3.77,0,0,0,1.13.55A4.31,4.31,0,0,0,18.78,18.29Z"/><path d="M30.23,0h5.54V18h4.62v.66H30.23V18h4.88V.66H30.23Z"/><path d="M45.18,5.52h5.49V18h4.67v.66H45.18V18H50V6.18H45.18Zm4.27-3.75a1.54,1.54,0,0,1,0-.33.74.74,0,0,1,.13-.29.66.66,0,0,1,.26-.2A1,1,0,0,1,50.3.88a1,1,0,0,1,.41.07.71.71,0,0,1,.27.2.76.76,0,0,1,.15.29,1.33,1.33,0,0,1,0,.33,1,1,0,0,1-.19.6.77.77,0,0,1-.68.27.75.75,0,0,1-.68-.27A1.06,1.06,0,0,1,49.45,1.78Z"/><path d="M65.23,18.93a5.48,5.48,0,0,1-2.45-.54,5.88,5.88,0,0,1-1.89-1.45,6.82,6.82,0,0,1-1.22-2.09,7.21,7.21,0,0,1-.45-2.46v-.54a7.67,7.67,0,0,1,.41-2.41,6.86,6.86,0,0,1,1.14-2.11,5.77,5.77,0,0,1,1.8-1.49,5.37,5.37,0,0,1,4.55-.12A4.91,4.91,0,0,1,68.77,7a5.52,5.52,0,0,1,1,1.79,6.57,6.57,0,0,1,.38,2.15v.77H59.88v.72a6.55,6.55,0,0,0,.4,2.2,6.12,6.12,0,0,0,1.09,1.89,5.33,5.33,0,0,0,1.68,1.31,4.9,4.9,0,0,0,2.18.5,5.56,5.56,0,0,0,2.26-.43,4.82,4.82,0,0,0,1.82-1.39l.47.33a5.12,5.12,0,0,1-2,1.61A6.22,6.22,0,0,1,65.23,18.93ZM65,5.94a4.5,4.5,0,0,0-2,.42,4.85,4.85,0,0,0-1.51,1.13,5.84,5.84,0,0,0-1,1.62,7,7,0,0,0-.52,1.9h9.59v-.16A5.24,5.24,0,0,0,69.2,9a5.08,5.08,0,0,0-.93-1.57,4.42,4.42,0,0,0-1.44-1.08A4.23,4.23,0,0,0,65,5.94Z"/><path d="M83.91,18.69V16.34a4.65,4.65,0,0,1-1.81,1.9,5.58,5.58,0,0,1-2.87.69,4.64,4.64,0,0,1-2-.39,3.78,3.78,0,0,1-1.38-1.06,4.55,4.55,0,0,1-.81-1.6,7.46,7.46,0,0,1-.28-2V5.52h.66v8.38a6.7,6.7,0,0,0,.23,1.7A4,4,0,0,0,76.38,17a3.18,3.18,0,0,0,1.16.94,3.86,3.86,0,0,0,1.69.34A5.76,5.76,0,0,0,81,18a4.4,4.4,0,0,0,1.39-.72,4,4,0,0,0,1-1.14,4.9,4.9,0,0,0,.57-1.53V5.52h.68V18.69Z"/><path d="M99.34,15.47a2.21,2.21,0,0,0-.21-1,2.51,2.51,0,0,0-.56-.76,4,4,0,0,0-.81-.58,6.52,6.52,0,0,0-1-.43q-.5-.18-1-.3l-.9-.21L93.87,12a10,10,0,0,1-1.1-.32,8,8,0,0,1-1-.44,3.45,3.45,0,0,1-.86-.62,2.82,2.82,0,0,1-.58-.86,2.65,2.65,0,0,1-.21-1.14,2.6,2.6,0,0,1,.22-1.09,3,3,0,0,1,.58-.85A3.46,3.46,0,0,1,91.73,6a5.54,5.54,0,0,1,1-.43,7,7,0,0,1,1.08-.24,7.33,7.33,0,0,1,1-.08,8,8,0,0,1,1.81.21,5.16,5.16,0,0,1,1.6.66,3.82,3.82,0,0,1,1.17,1.16A3.6,3.6,0,0,1,100,9h-.68a2.51,2.51,0,0,0-.45-1.43,3.36,3.36,0,0,0-1.08-1,5.05,5.05,0,0,0-1.42-.54,6.92,6.92,0,0,0-1.49-.17,7.51,7.51,0,0,0-1.32.13,5,5,0,0,0-1.33.43,3.05,3.05,0,0,0-1,.81,2,2,0,0,0-.43,1.27,2,2,0,0,0,.19,1,2.41,2.41,0,0,0,.55.72,3.41,3.41,0,0,0,.8.53,7.62,7.62,0,0,0,.94.38q.49.16,1,.27l.91.19q.78.17,1.64.43a7.11,7.11,0,0,1,1.58.68,3.76,3.76,0,0,1,1.19,1.08,2.78,2.78,0,0,1,.46,1.64,2.73,2.73,0,0,1-.23,1.15,3.09,3.09,0,0,1-.61.89,3.71,3.71,0,0,1-.88.66,5.49,5.49,0,0,1-1.06.44,7.59,7.59,0,0,1-1.13.24,8.22,8.22,0,0,1-1.11.08,9.25,9.25,0,0,1-1.19-.08,7.26,7.26,0,0,1-1.19-.26,5.94,5.94,0,0,1-1.1-.46,4,4,0,0,1-.92-.68,3.23,3.23,0,0,1-1-2.12h.67a2.65,2.65,0,0,0,.57,1.43,3.5,3.5,0,0,0,1.13.9,5.09,5.09,0,0,0,1.45.47,9.19,9.19,0,0,0,1.53.13,7.29,7.29,0,0,0,.9-.06,6.21,6.21,0,0,0,1-.2,6.28,6.28,0,0,0,.93-.35,3.21,3.21,0,0,0,.8-.53,2.51,2.51,0,0,0,.55-.72A2.17,2.17,0,0,0,99.34,15.47Z"/></svg>